<svg xmlns="http://www.w3.org/2000/svg" height="800" width="1200" xml:space="preserve" y="0" x="0" id="Layer_1" version="1.1" viewBox="-13.305 -31.2 115.31 187.2"><style id="style18" type="text/css">.st0{fill:#ec1c24}.st1{fill:#231f20}.st3{fill:#ea2227}.st4{fill:#f69220}</style><path id="path20" d="M29.9 79.2H.9c-.5 0-.9.4-.9.9v2.2c0 .5.4.9.9.9h21.5v11.9c-.6-.9-1.3-1.7-2.1-2.5-2.5-2.6-5.3-3.9-8.1-3.9-2.2 0-4.2 1.1-5.7 3.2-1.2 1.7-2 3.7-2 5.5 0 1.9.3 4.3 1.7 6.5 1.8 2.7 4.6 3.5 7.1 3.5 3.3 0 6.1-2.3 6.1-5.2 0-1.7-.9-3.2-2.5-4.1l-1.6-.9v2.4c-.1.6-1.3 1.7-2.6 1.7-1.1 0-2.2-.5-2.8-1.1-.5-.5-.6-1.3-.6-1.9 0-.8.3-1.6.9-2.4.7-.8 1.4-1.2 2.5-1.2 2.9-.1 5.3 1.3 7.3 4.2 1.6 2.4 2.4 4.7 2.4 7.2l.1 6 4.3 2.6c.1.1.3.1.5.1.5 0 .9-.4.9-.9V83.3h1.7c.5 0 .9-.4.9-.9v-2.2c0-.6-.4-1-.9-1" class="st0"/><path id="path22" d="M87.7 79.2H51c-.5 0-.9.4-.9.9v4.1c-3.5-3.7-6.7-5.6-9.6-5.6-2.7-.1-5.1.6-6.9 2.1-1.9 1.5-3 3.3-3 5.4 0 6.4 7.2 6.4 9 5.4.3-.2.7-.4 1.2-.4 1.5 0 2 1.1 2 2.1 0 1.5-2.1 2.8-4.7 2.8-1.4 0-2.3-.4-2.9-1.2l-1.1-1.7-.8 1.9c-.2.5-.4 1-.4 1.7 0 1.5.8 2.9 2.1 4.1 1.3 1.1 2.9 1.7 4.6 1.7 2.7 0 5-1 6.5-3 1.2-1.6 1.8-3.5 1.8-5.6 0-1.2-.4-2.4-1.4-3.8-1.2-1.7-2.6-2.5-4.2-2.5-.6 0-1.3.2-2 .4-.3.1-.8.2-.9.2-.2 0-.7-.1-1-.5-.2-.2-.6-.7-.6-1.4.1-1.6 1.5-3.2 4-3.2h.1c1.7 0 3.4.8 5.1 2.4 1.3 1.2 2.3 2.5 3.1 3.9v22.8l4.3 2.5c.1.1.3.1.5.1.5 0 .9-.4.9-.9V83.3h6.5v19.8l5.2 2.1c.1 0 .2.1.3.1.5 0 .9-.4.9-.8v-.2c.9-5.8 3.4-9.9 7.7-12.3v1.1c0 .8.1 3 .1 4.2 0 .7.1 1.2.1 1.6 0 2.2.3 5.8 1.1 8.3 1.4 4.9 3.8 6 5.6 6.1h.1c1 0 1.8-.3 2.4-.8.3-.3.7-.9.7-1.9 0-.9-.1-1.6-.4-2.1l-.4-.7-.8.2c-.9.2-1.2.2-1.3.2h-.2c-.2 0-.3 0-.4-.1-.3-.1-.8-.6-1.2-2.2-.3-1.2-.4-2.7-.4-3.6 0-6.4 1.3-11.2 3.4-12.3l.1-.1c.3-.2.5-.5.5-.8 0-.2 0-.3-.1-.4v-.3c-1-2-3.1-3.4-6-4.2l-.2-.1h-.2c-2.3.4-5 2-8.4 4.8-.9.7-1.7 1.5-2.5 2.2v-7.9h19.7c.5 0 .9-.4.9-.9v-2.2c0-.5-.4-.9-.9-.9" class="st0"/><path id="path24" d="M2.9 120.3v1.8l1.5-.6.5.4v.5c0 .6-.2 1.1-.5 1.5-.3.4-.8.6-1.4.6-.6 0-1.2-.3-1.7-.8-.4-.4-.7-1-1-1.7l.4-.3c.5 1.5 1.3 2.2 2.3 2.2.4 0 .7-.1.9-.4.3-.3.4-.6.4-1 0-.2 0-.3-.1-.5l-1.4.6-.5-.4v-1.9H0v-.4h5.3v.5H2.9z" class="st1"/><path transform="translate(-5.7 -1.1)" id="polygon26" class="st1" d="M11.5 125.6v-4.2h-.7v-.4h1.9v.4H12v4.2z"/><path id="path28" d="M9.9 120.3v.3c.4 0 .8.1 1.2.4.4.3.6.6.6 1 0 .3-.1.6-.4.8-.2.2-.5.3-.9.3h-.1v-.5h.3c.4 0 .6-.2.6-.6 0-.5-.4-.7-1.3-.8v3.3h-.5c-.2-.5-.5-.9-.9-1.2-.4-.4-.9-.6-1.3-.6l-.2-.6c.3-.2 1.1-.7 2.4-1.4v-.3H6.9v-.5h5.3v.5H9.9zm-.6.9c-.2.1-.5.2-.8.5l-.7.6c.3.1.5.4.8.6.1.1.4.4.7.8z" class="st1"/><path id="path30" d="M19.2 119.1c-.9-.6-1.7-.9-2.3-.9-.6 0-1 .1-1.3.4-.4.3-.5.7-.5 1.3h.6v.5h-.6v4.1h-.5v-4.1H14v-.5h.6c0-.7.2-1.2.7-1.6.4-.4 1-.5 1.7-.5.4 0 .9.1 1.3.3.3.1.7.4 1.2.7z" class="st1"/><path id="path32" d="M19.6 120.3v4.1h-.5c-.3-.4-.7-.8-1.4-1.2-.7-.4-1.3-.6-1.8-.6l-.2-.6c.3-.2.8-.5 1.6-.8.2-.1.8-.3 1.8-.7v-.2h-3.8v-.4h4.8v.5h-.5zm-.5.9c-.5.2-1.4.5-2.5 1.1 1 .3 1.8.8 2.5 1.4z" class="st1"/><path id="path34" d="M20 119.9h5.2v.5H20zm2.9 4.5c-.6 0-1.1-.3-1.6-.8-.4-.5-.7-1-.9-1.6l.3-.3c.2.6.5 1.1.8 1.5.4.5.9.8 1.4.8.4 0 .7-.1 1-.4.2-.3.3-.6.3-1-.4.3-.7.4-1.1.4-.3 0-.6-.1-.9-.3-.3-.2-.4-.5-.4-.9 0-.3.1-.6.3-.8.2-.2.5-.3.8-.3.2 0 .5.1.6.2.2.1.2.3.2.5s-.1.4-.3.5l-.4-.3c.1-.1.2-.2.2-.3 0-.2-.1-.3-.3-.3-.2 0-.3.1-.4.2-.1.1-.2.3-.2.4 0 .2.1.4.2.5.2.1.3.2.6.2.4 0 .8-.2 1.1-.5l.5.5c0 .6-.2 1.1-.5 1.5-.3.4-.7.6-1.3.6" class="st1"/><path transform="translate(-5.7 -1.1)" id="polygon36" class="st1" d="M31.4 125.6v-4.2h-.7v-.4h1.8v.4h-.6v4.2z"/><path id="path38" d="M28.9 124.8c-.6 0-1-.1-1.2-.3-.4-.5-.7-1.1-.7-1.7 0-.4.1-.8.4-1.3.2-.3.5-.6.9-1.1h-1.6v-.5h2.6v.5c-.4.2-.8.5-1.2.9-.4.5-.5.9-.5 1.4 0 1.1.5 1.7 1.4 1.7.1 0 .3-.1.4-.2v.5c-.2 0-.3.1-.5.1" class="st1"/><path id="path40" d="M32.4 120.3v4.1h-.5v-2.7c0-.1-.1-.2-.2-.5-.3-.5-.8-.8-1.3-.8-.2 0-.4.1-.6.3l-.3.3c.2-.1.4-.1.6-.1.3 0 .5.1.7.2.2.1.3.3.3.6s-.1.6-.4.9c-.2.3-.5.5-.8.6l-.3-.4c.2-.1.4-.2.6-.4.2-.2.4-.4.4-.6 0-.1-.1-.2-.4-.3-.2-.1-.4-.1-.6-.1h-.2l-.3-.5.6-.6c.2-.2.5-.3.8-.3.6 0 1.1.3 1.5.9v-1h1.1v.5h-.7z" class="st1"/><path id="path42" d="M37 120.3v4.1h-.5c-.3-.4-.7-.8-1.4-1.2-.7-.4-1.3-.6-1.8-.6l-.2-.6c.8-.5 1.9-1 3.3-1.5v-.2h-3.6v-.4h4.7v.5H37zm-.6.9c-.9.3-1.7.7-2.4 1.1.9.3 1.7.8 2.4 1.4zm-1.4 3.4c-.2-.2-.4-.3-.8-.5l.2-.4c.3.1.6.3.9.6z" class="st1"/><path id="path44" d="M44.6 119.1c-.9-.6-1.7-.9-2.3-.9-.6 0-1 .1-1.3.4-.4.3-.5.7-.5 1.3h.6v.5h-.6v4.1H40v-4.1h-.7v-.5h.6c0-.7.2-1.2.7-1.6.4-.4 1-.5 1.7-.5.4 0 .9.1 1.3.3.3.1.7.4 1.2.7z" class="st1"/><path id="path46" d="M43.7 120.3v1.8l1.5-.6.5.4v.5c0 .6-.2 1.1-.5 1.5-.3.4-.8.6-1.4.6-.6 0-1.2-.3-1.7-.8-.4-.4-.7-1-1-1.7l.4-.3c.5 1.5 1.3 2.2 2.3 2.2.4 0 .7-.1.9-.4.3-.3.4-.6.4-1 0-.2 0-.3-.1-.5l-1.4.6-.5-.4v-1.9h-2.4v-.4H46v.5h-2.3z" class="st1"/><path id="path48" d="M51.1 119.1c-.9-.6-1.7-.9-2.3-.9-.6 0-1 .1-1.3.4-.4.3-.5.7-.5 1.3h.6v.5H47v4.1h-.5v-4.1h-.6v-.5h.6c0-.7.2-1.2.7-1.6.4-.4 1-.5 1.7-.5.4 0 .9.1 1.3.3.3.1.7.4 1.2.7z" class="st1"/><path id="path50" d="M50.8 120.3c.2.5.6.8 1.2.8h.2l.4.5c-.3.6-.5 1.1-.5 1.4 0 .7.1 1.2.3 1.4l-.4.2c-.3-.4-.4-.8-.4-1.3 0-.3 0-.6.1-.8 0-.1.1-.4.2-.9-.4 0-.8-.2-1.1-.4-.4-.3-.6-.6-.7-.9-.6.4-.9.9-.9 1.3 0 .3.1.5.4.5.1 0 .3 0 .4-.1.1-.1.3-.2.3-.3h.5c.1.2.2.5.2.9 0 1-.5 1.6-1.6 1.6-.2 0-.4-.1-.6-.2-.1 0-.3-.2-.6-.3-.2-.3-.4-.7-.7-1.3l.3-.3c.1.4.4.8.8 1.3l.4.2c.1.1.3.1.4.1.3 0 .6-.1.8-.2.2-.2.3-.4.3-.7 0-.2 0-.3-.1-.4-.3.3-.5.4-.8.4-.3 0-.5-.1-.6-.3-.2-.2-.2-.4-.2-.7 0-.4.2-.8.6-1.3h-2.1v-.6H53v.5h-2.2z" class="st1"/><path id="path52" d="M53.8 120.3v3.6h.3c.4 0 .9-.1 1.4-.4.5-.3.8-.6.8-1.1 0-.5-.2-.7-.7-.7-.1 0-.4.1-.7.3l-.2-.5c.3-.2.7-.3 1.1-.3.3 0 .6.1.8.4.2.2.2.5.2.8 0 .5-.2.9-.7 1.2-.4.3-.8.5-1.3.6-.3.1-.9.1-1.6.1v-4.1h-.4v-.3H56v-.1c0-.3-.1-.6-.4-.8-.2-.2-.5-.3-.8-.3-.4 0-.9.2-1.6.5l-.2-.4c.6-.4 1.2-.6 1.8-.6.5 0 .9.2 1.2.5.3.3.5.7.5 1.1h.8v.5z" class="st1"/><path transform="translate(-5.7 -1.1)" id="polygon54" class="st1" d="M63.5 125.6v-4.2h-.7v-.4h1.8v.4H64v4.2z"/><path id="path56" d="M63.7 120.3v4.1h-.5v-.8c0-1-.2-1.5-.7-1.5-.2 0-.3.1-.5.3-.1.2-.2.3-.2.5h-.6c0-.2-.1-.4-.2-.6-.1-.2-.3-.3-.5-.3s-.4.1-.5.3c-.1.2-.2.4-.2.6 0 .5.3.8.9.8h.2l-.2.5h-.2c-.4 0-.7-.1-1-.4-.2-.3-.4-.6-.4-1s.1-.7.4-1c.2-.3.6-.4 1-.4s.7.2 1 .7c.3-.5.6-.7 1-.7.3 0 .5.2.7.7v-1.9h-4.4v-.3h5.5v.5h-.6z" class="st1"/><path id="path58" d="M66.9 122.6c0 .3.1.6.2.9.2.3.4.5.7.5.1 0 .3 0 .4-.1l.2.5c-.2.1-.4.1-.5.1-.9 0-1.3-.7-1.3-2.1 0-.8.5-1.6 1.5-2.5h.8v.5c-.5.1-.9.3-1.3.8-.5.4-.7.9-.7 1.4" class="st1"/><path id="path60" d="M73.3 120.3v4.1h-.5v-.8c0-1-.2-1.5-.7-1.5-.2 0-.3.1-.5.3-.1.2-.2.3-.2.5h-.6c0-.2-.1-.4-.2-.6-.1-.2-.3-.3-.5-.3s-.4.1-.5.3c-.1.2-.2.4-.2.6 0 .5.3.8.9.8h.2l-.2.5h-.2c-.4 0-.7-.1-1-.4-.2-.3-.4-.6-.4-1s.1-.7.4-1c.2-.3.6-.4 1-.4s.7.2 1 .7c.3-.5.6-.7 1-.7.3 0 .5.2.7.7v-1.9h-4.4v-.3h5.5v.5h-.6z" class="st1"/><path id="path62" d="M77.9 120.3v4.1h-.5v-.3c0-.4-.2-.8-.7-1.3-.5-.4-.9-.7-1.3-.7-.2 0-.4.1-.5.2-.1.1-.2.3-.2.5s.1.4.2.5c.1.1.3.2.5.2.1 0 .2 0 .4-.1l.2.5c-.2.1-.4.1-.7.1-.3 0-.6-.1-.8-.4-.2-.2-.3-.5-.3-.8 0-.3.1-.6.3-.9.2-.2.5-.4.9-.4.8 0 1.5.5 2.1 1.4v-2.7h-3.7v-.3h4.7v.5h-.6z" class="st1"/><path id="path64" d="M80.4 124.8c-.6 0-1-.1-1.2-.3-.4-.5-.7-1.1-.7-1.7 0-.4.1-.8.4-1.3.2-.3.5-.6.9-1.1h-1.6v-.5h2.6v.5c-.4.2-.8.5-1.2.9-.4.5-.5.9-.5 1.4 0 1.1.5 1.7 1.4 1.7.1 0 .3-.1.4-.2v.5c-.2 0-.3.1-.5.1" class="st1"/><path id="path66" d="M81 120.3v1.8c.8-.5 1.5-.9 2.1-1.1l.5.7c-.3.7-.4 1.2-.4 1.5 0 .3.1.7.2 1.2l-.4.2c-.2-.5-.3-.9-.3-1.1 0-.6.1-1.1.2-1.7-.6.2-1.3.7-2.1 1.4l-.4-.4v-2.4H80v-.5h4v.5h-3z" class="st1"/><path id="path68" d="M88.1 120.3v4.1h-.5v-.3c0-.4-.2-.8-.7-1.3-.5-.4-.9-.7-1.3-.7-.2 0-.4.1-.5.2-.1.1-.2.3-.2.5s.1.4.2.5c.1.1.3.2.5.2.1 0 .2 0 .4-.1l.2.5c-.2.1-.4.1-.7.1-.3 0-.6-.1-.8-.4-.2-.2-.3-.5-.3-.8 0-.3.1-.6.3-.9.2-.2.5-.4.9-.4.8 0 1.5.5 2.1 1.4v-2.7H84v-.3h4.7v.5h-.6z" class="st1"/><path id="rect70" fill="none" d="M0 0h88.6v124.7H0z"/><g transform="translate(-5.7 -1.1)" id="g134"><path id="path72" d="M80.4 39.7c0 .9 0 1.9-.1 2.8-.3 4-1.3 7.7-2.9 11.2-.6 1.4-1.4 2.7-2.2 4-6 9.5-16.5 15.7-28.5 15.7-5.1 0-10-1.2-14.4-3.2C20.9 64.8 13 53.1 13 39.7 13 26.4 20.6 15 31.7 9.5c-.9 1.1-1.7 2.4-2.4 3.6-.1.1-.1.2-.2.3-.4.4-.9.7-1.3 1.1L26.3 16l-.3.3c-.1.1-.2.2-.3.4-.2.2-.4.4-.5.6-.3.4-.7.8-1 1.3-1.4 1.8-2.6 3.9-3.5 6l-.3.6c-.1.3-.2.5-.3.8 0 .1-.1.3-.1.4-.1.4-.3.8-.4 1.2-.1.3-.2.5-.2.8 0 .1-.1.3-.1.4-.1.3-.1.5-.2.8-.2.8-.4 1.7-.5 2.6 0 .2-.1.4-.1.7 0 .2 0 .3-.1.5 0 .3 0 .5-.1.8v2.2c0 9.2 4.2 17.4 10.8 22.8 5.1 4.2 11.6 6.7 18.6 6.7 6.4 0 12.4-2.1 17.2-5.6 3.5-2.6 6.5-5.9 8.6-9.7.3-.5.5-1 .8-1.5 1.7-3.5 2.7-7.5 2.8-11.6v-1c0-1 0-1.9-.1-2.8.1 0 .1.1.1.1.5.4.9.8 1.3 1.2.4-.7.8-1.4 1.3-2 .3 1.3.5 2.6.6 3.9.1.8.1 1.8.1 2.8" class="st3"/><path id="path74" d="M77.1 36.3v1c0 6-2.5 11-2.8 11.6-.2.5-.5 1-.8 1.5-2.1 3.8-5.1 7.2-8.6 9.7-4.8 3.5-10.8 5.6-17.2 5.6-7.1 0-13.6-2.5-18.6-6.7-6.6-5.4-10.8-13.6-10.8-22.8V34c0-.3 0-.5.1-.8 0-.2 0-.3.1-.5 0-.2.1-.4.1-.7.1-.9.3-1.7.5-2.6.1-.3.1-.5.2-.8 0-.1.1-.3.1-.4.1-.3.1-.5.2-.8.1-.4.3-.8.4-1.2 0-.1.1-.3.1-.4.1-.3.2-.5.3-.8l.3-.6c.9-2.1 2.1-4.2 3.5-6 .3-.4.7-.8 1-1.3.2-.2.3-.4.5-.6.1-.1.2-.2.3-.4l.3-.3 1.5-1.5c.4-.4.9-.8 1.3-1.1-.1.1-.1.2-.2.3-.1.1-.1.2-.2.4-1.7 3.5-2.8 7.5-3.2 11.9-.1 1.2-.2 2.4-.2 3.6 0 15.4 9 27.9 20.2 27.9h1.1c1.6 0 3.2-.2 4.7-.6 7.6-2.1 13.1-9 13.1-17.2V39c-.1-4.9-2.2-9.2-5.5-12.4 2.3.1 4.5.4 6.7.9 4.1 1.1 7.9 3 11.1 5.6.1 0 .1.1.2.1.1 1.2.2 2.1.2 3.1" class="st4"/><path id="path76" d="M77.2 36.3v1c0 6.3-2.8 11.7-2.8 11.7-.2.5-.5 1-.8 1.5-2.1 3.8-5.1 7.2-8.7 9.8-5.1 3.6-11 5.6-17.3 5.6-6.8 0-13.5-2.4-18.7-6.7-6.9-5.6-10.8-14-10.8-22.9 0-8.9 4-17.3 10.9-22.9l.3-.2c-.1.1-.1.2-.2.3-.1.1-.1.2-.2.3-6.7 5.6-10.6 13.8-10.6 22.5 0 8.8 3.9 17.1 10.7 22.7 5.2 4.3 11.8 6.6 18.6 6.6 6.2 0 12.1-1.9 17.1-5.5 3.5-2.5 6.5-5.9 8.6-9.7.3-.5.5-1 .8-1.5 0-.1 2.8-5.4 2.8-11.6v-1c0-.9 0-1.9-.1-2.8v-.1c.1 0 .1.1.2.1l.1.1c.1.9.1 1.8.1 2.7" class="st4"/><path id="path78" d="M69.2 18s-24-4.5-35.3 16.4c0 0 2-14.5 19.2-21L49.7 7s6.9-6.2 19-4.6z" class="st3"/><path id="path80" d="M39.4 29.1s9.6-12.5 31.5-9.3l-.3-7.3s9.2-.3 16.6 6.1l-9.1 13.8s-6.3-7.3-19.3-7.5c-5.3-.1-11.8.6-19.4 4.2" class="st4"/><path id="path82" d="M29.9 40.5s-11-23.9 14.5-39.3l6.1 11.2s-4.1 1.4-8.5 5.2c-4.8 4.1-10 11.1-12.1 22.9" class="st4"/><g id="g132"><path id="path84" d="M44.4 34s-2.1.5-2-.6c0-.4.2-.5.4-.4 0-.2-.4-.7.5-1 .3-.4.6-.8.7-1 .1-.3.3-.6 1.1-.5.8.2 1.7 1 1.8 1.2.5 0 1 .1.8.2-.2.1-.3.3-.2.3 0 0 .3.2-.5.2 0 .2.2.2.3.3.1.1 0 .2 0 .2s.1.4-.3.3c-.4-.2-.4-.3-.6-.3-.1 0-.4.1-.4.2s.5.4-.1.5c-.1.1.2.2 0 .3-.2.1-1.1.8-1.5.9-.4 0-.5-.1-.5-.3 0-.2.2-.3.5-.3.1-.1.1-.2 0-.2" class="st0"/><path id="path86" d="M44.2 36.2c-.2 0-.8-.4-.5-.6.3-.2 1.7-1.1 2-1.2.3-.1.7.3.3.6-.3.3-1.8 1.2-1.8 1.2" class="st0"/><path id="path88" d="M46.4 35.2c0-.2.2-1.1.2-1.3 0-.2.7-.2.5.5-.1.8-.7 1-.7.8" class="st0"/><path id="path90" d="M47.3 33.6s3.8-.2 4.1 0c.3.2 1.6 2.2 1.3 4-.3 1.8-.9 2.3-3.3 2.5 0-.6-.1-2.1-.4-2.5-.2-.4-1.1-1.3-1.5-1.3 0 .4-.1 1.7-.1 1.7s-1.2.1-1.4-.2v-1.9s1.1-1 1.2-1.2c.2.1.2.7 1.6.6.1-.2-1.5 0-1.5-1.7" class="st0"/><path id="path92" d="M45.9 35.3s-1.2 1-1.5 1.2c-.1.3-.3 1.4 1.3 1.4.1-.7.2-2.6.2-2.6" class="st0"/><path id="path94" d="M43 36.8c-.4 0-.7-.1-.6-.4 0-.3.6-.6.9-.5.3.1.9.2.9 1.5.2.3 1 .8 1.9.9.9.1 1.5-.1 1.5.2v1.8s-1.1 0-3.9-2c-.2-.3-.4-.5-.4-1 0-.2-.2-.5-.3-.5" class="st0"/><path id="path96" d="M42.1 37c-.5 0-1.8 1.1-.8 1.6.3-.2.5-.5.5-.5s-.2.6.3.8c.5.2.3-.3.6-.3.2.3.2.4.5.4s.3-.8 0-1.2c-.3-.5-.6-.7-1.1-.8" class="st0"/><path id="path98" d="M47.8 37.2v3.5s1.2-.4 1.3-.7c0-.6-.2-2.8-1.3-2.8" class="st0"/><path id="path100" d="M45 39.5s1.4.9 2.2 1.3c-.1.2-.7.9-.9.9-.2-.1-1.2-1.5-1.3-2.2" class="st0"/><path id="polygon102" class="st0" d="M38.3 40.8h1.8v.7h-1.7z"/><path id="polygon104" class="st0" d="M58.8 40.5h-7.9l1.3 1h6.6z"/><path id="path106" d="M49.4 40.4c.1-.1 1 .6.8.7-.3.1-2.7 1.2-2.9 1.1-.2-.1-.2-.7.1-.8.2-.1 1.6-.5 2-1" class="st0"/><path id="path108" d="M46.7 42.1c-.3-.2-1.9 1.4-1.2 1.5.7.1 2.4.4 2.8.6.4-.2.8-.5.7-.7.3 0 .7.4 1.1.3.4-.2 2.3-1.6 2.4-1.8-.4-.3-1.2-.8-1.6-.8-.3 0-2.9 1.5-4.2.9" class="st0"/><path id="path110" d="M45.9 44c.2 0 2.2.8 2.7.7.5-.1.6-.6.9-.6.3 0 .4.3.9 0s1.3-1 1.5-1.2c0 .3 0 1.2-1.8 2s-6.1 2-6.2 2.6c.2.1.7-.1 1.1-.3.2.2.6.7.5 1.7-.1.9-.8 2.5-.8 2.9v2.6c0 .2.4 1.3-.2 1.2-.5-.1-.9-.1-1.1-.1-.2 0-.6.4-1 .3-.4-.1-1-.2-1-.4s.4-.2.8-.3c.4-.1.6-.5 1.3-.8 0-.5-.2-3.9-.2-4.6 0-.7-.2-2.2.1-2.8.1-.6 1.7-2.9 2.5-2.9" class="st0"/><path id="path112" d="M48.5 46.1c0 .2 1.2 3.3 1.8 3.4.5.1 5.6-1 6.6-.7.3.4.9 1.1.9 1.6 0 0 .1 1 0 1.1.2 0 .6-.1.7-.4.1-.3 0-1.6.1-1.9 0-.2.6-1.5-.2-1.4-.8 0-3.2 0-4-.2-.8-.2-2.5-.5-2.9-.3-.4.2-.9.9-.9 1.1-.2 0-.2-.1-.1-.7.2-.5.8-2.1.7-2.9-.6 0-2.7 1.3-2.7 1.3" class="st0"/><path id="path114" d="M45.6 41.2c.1.1.1.4.3.5l-4.1-.3s-.5-.3-.3-.4z" class="st0"/><path id="path116" d="M41.1 40.8h4.1s-.3-.5-.4-.8c-.7 0-3.8.1-3.8.1s-.4 0-.4.8c-.1.2.3.5.5-.1" class="st0"/><path id="path118" d="M37.2 41.5h.8s.3-.1 0-.4c-.3-.3-.8-.5-.4-1.1-.4-.1-1-.2-.9 1.1h-.4s-.1-.7-1.1-.7c-.9 0-3.3 1-3.3 1s2.6.7 3.3.7c.7 0 1.1-.6 1.1-.6h.3s.1.5.3.7v.8s-.4.1-.3.6c.1.4.4.4.4.4.1 0 .2-.1.5-.1.2-.2.1-.7-.3-.9v-.6s.3-.2.3-.4-.3-.2-.3-.5" class="st0"/><path id="path120" d="M42.1 45.5c.3-.2.4-.6.4-.6v-2.4c0-.6-1-1-1.1-1h-.1c-.1.1-.4.3-.6.3-.3 0-.4 0-.7-.3-.8 0-1.2 1-1.3 1 0 .2-.1 1.9 0 2.2.1.3.3.5.4.6-.2.6-1 3.8.1 4.2v.5H42v-.6c1-.4.3-3.1.1-3.9m-3.1-3c.1-.1.4-.9 1-.9.3.3.5.3.8.3.3 0 .5-.2.7-.3.3.1.9.4.9.8v2.4c0 .1-.1.3-.3.4h-.5v-1h-1.9v1h-.4c-.1-.1-.3-.3-.3-.5-.1-.2-.1-1.4 0-2.2m1.9 6.6h-.5c-.1 0-.2-.1-.2-.2s.1-.2.2-.2h.5c.1 0 .2.1.2.2s-.1.2-.2.2m1 .2l-1.3-1.5-1.2 1.5c-.8-.3-.3-2.8 0-3.9H42c.2 1.1.7 3.5-.1 3.9" class="st0"/><path id="path122" d="M41.5 46.5c.3-.4-.1-.7-.1-.7h-1.6c-.5 0-.3.7-.3.7l1 .9s.7-.4 1-.9" class="st0"/><path id="path124" d="M40.9 47.5l1 1.2s-.1-1.4-.1-1.8c-.3 0-.9.6-.9.6" class="st0"/><path id="path126" d="M39.4 46.9c0 .5-.1 1.8-.1 1.8l1-1.2s-.6-.6-.9-.6" class="st0"/><path id="path128" d="M41.3 43.9h.2v-.2c0-.1-.1-.2-.2-.2h-1.5c-.1 0-.2.1-.2.2v.2h.2z" class="st0"/><path id="path130" d="M39.1 50.2h-.2v.2c0 .1.1.2.2.2H42c.1 0 .2-.1.2-.2v-.2H42z" class="st0"/></g></g></svg>